<?xml version="1.0" encoding="UTF-8"?>
<!DOCTYPE svg PUBLIC "-//W3C//DTD SVG 1.1//EN" "http://www.w3.org/Graphics/SVG/1.1/DTD/svg11.dtd">
<!-- Creator: CorelDRAW 2018 (64-Bit) -->
<svg xmlns="http://www.w3.org/2000/svg" xml:space="preserve" width="2000px" height="1178px" version="1.1" style="shape-rendering:geometricPrecision; text-rendering:geometricPrecision; image-rendering:optimizeQuality; fill-rule:evenodd; clip-rule:evenodd"
viewBox="0 0 2000 1178"
 xmlns:xlink="http://www.w3.org/1999/xlink">
 <defs>
  <style type="text/css">
   <![CDATA[
    .str0 {stroke:white;stroke-width:2;stroke-miterlimit:2.61313;stroke-opacity:0.501961}
    .fil1 {fill:#09FF00;fill-opacity:0.501961}
    .fil0 {fill:#5FE163;fill-opacity:0.501961}
   ]]>
  </style>
 </defs>
 <g id="Layer_x0020_2">
  <metadata id="CorelCorpID_0Corel-Layer"/>
  <polygon id="AP-24A" class="fil0 str0" points="1178,211.71 1121,193 1113.5,197.26 1113.5,161 1178,182.75 "/>
  <polygon id="AP-23A" class="fil0 str0" points="1178,239.46 1121,223 1113.5,228.19 1113.5,197.26 1121,193 1178,211.71 "/>
  <polygon id="AP-22A" class="fil0 str0" points="1178,268.21 1122,252 1113.5,257.98 1113.5,228.19 1121,223 1178,239.46 "/>
  <polygon id="AP-21A" class="fil0 str0" points="1178,297.46 1124,282 1113.5,287.97 1113.5,257.98 1122,252 1178,268.21 "/>
  <polygon id="AP-20A" class="fil0 str0" points="1178,324.71 1123,310 1113.5,317.25 1113.5,287.97 1124,282 1178,297.46 "/>
  <path id="AP-19A" class="fil0 str0" d="M1178 354.87l-64.5 -14.78c0,-7.88 0,-15.7 0,-22.84l9.5 -7.25 55 14.71 0 30.16z"/>
  <path id="AP-18A" class="fil0 str0" d="M1178 354.87l-105.5 -22.43c0,9.32 5.25,22.43 13.5,27.56l92 22.71 0 -27.84z"/>
  <polygon id="AP-17A" class="fil0 str0" points="1178,412.96 1062,390 1062,354.87 1178,382.71 "/>
  <polygon id="AP-16A" class="fil0 str0" points="1178,441 1113.5,429.05 1113.5,399.94 1178,412.96 "/>
  <polygon id="AP-15A" class="fil0 str0" points="1178,468.21 1122,458 1113.5,462.63 1113.5,429.05 1178,441 "/>
  <polygon id="AP-14A" class="fil0 str0" points="1178,496.71 1122,487 1113.5,491.35 1113.5,462.63 1122,458 1178,468.21 "/>
  <polygon id="AP-13A" class="fil0 str0" points="1178,526 1122,517 1113.5,520.54 1113.5,491.35 1122,487 1178,496.71 "/>
  <polygon id="AP-12A" class="fil0 str0" points="1178,553.71 1121,546 1113.5,550.12 1113.5,520.54 1122,517 1178,526 "/>
  <polygon id="AP-11A" class="fil0 str0" points="1178,582.71 1122,576 1113.5,580.25 1113.5,550.12 1121,546 1178,553.71 "/>
  <polygon id="AP-10A" class="fil0 str0" points="1178,611.71 1122,606 1113.5,608.55 1113.5,580.25 1122,576 1178,582.71 "/>
  <polygon id="AP-9A" class="fil0 str0" points="1178,640.46 1122,635 1113.5,638.21 1113.5,608.55 1122,606 1178,611.71 "/>
  <polygon id="AP-8A" class="fil0 str0" points="1178,668.21 1123,665 1113.5,666.36 1113.5,638.21 1122,635 1178,640.46 "/>
  <polygon id="AP-7A" class="fil0 str0" points="1178,696.96 1113.5,694.57 1113.5,666.36 1123,665 1178,668.21 "/>
  <polygon id="AP-6A" class="fil0 str0" points="1178,726.71 1113.5,723.95 1113.5,694.57 1178,696.96 "/>
  <polygon id="AP-5A" class="fil0 str0" points="1178,754.46 1113.5,754.46 1113.5,723.95 1178,726.71 "/>
  <polygon id="AP-4A" class="fil0 str0" points="1178,783.71 1113.5,783.18 1113.5,754.46 1178,754.46 "/>
  <polygon id="AP-3A" class="fil0 str0" points="1178,812.71 1113.5,814.34 1113.5,783.18 1178,783.71 "/>
  <polygon id="AP-2A" class="fil0 str0" points="1178,841.85 1113.5,842.83 1113.5,814.34 1178,812.71 "/>
  <polygon id="AP-1A" class="fil0 str0" points="1178,841.85 1113.5,842.83 1113.5,873.5 1178,871 "/>
 </g>
 <g id="Layer_x0020_3">
  <metadata id="CorelCorpID_1Corel-Layer"/>
  <path id="AP-1B" class="fil1 str0" d="M912.63 845.55l68.23 0 124.41 -2.53 0 31.48c-64.26,-0.33 -149.02,6.5 -192.77,-1l0.13 -27.95z"/>
  <polygon id="AP-2B" class="fil1 str0" points="912.63,845.55 980.86,845.55 1105.27,843.02 1105.27,814.06 912.78,814.33 "/>
  <polygon id="AP-3B" class="fil1 str0" points="912.78,814.65 1105.27,814.38 1105.27,783.55 912.92,783.5 "/>
  <polygon id="AP-4B" class="fil1 str0" points="912.92,783.18 1105.27,783.23 1105.27,754.27 977,751.75 952.25,751.5 913.07,752.4 "/>
  <polygon id="AP-5B" class="fil1 str0" points="913.07,752.4 952.25,751.5 977,751.75 1105.27,754.27 1105.27,723.72 972.98,719.98 948.48,719.98 913.21,723.36 "/>
  <polygon id="AP-6B" class="fil1 str0" points="913.21,723.36 948.48,719.98 972.98,719.98 1105.27,723.72 1105.27,694.25 968.98,689 945.75,689 913.35,693.66 "/>
  <polygon id="AP-7B" class="fil1 str0" points="913.28,692.37 948.56,688.99 973.06,688.99 1105.35,692.73 1105.35,663.26 969.06,658.01 945.83,658.01 913.42,662.67 "/>
  <path id="AP-8B" class="fil1 str0" d="M913.42 662.67l23.04 -4.27c9.75,-2.25 18.39,-1.52 27.5,-1l141.39 5.86 -0.08 -27.38 -126.09 -6.14 -31.32 -1.22 -33.9 6.23 -17.64 3.61 0 26.64 17.1 -2.33z"/>
  <path id="AP-9B" class="fil1 str0" d="M913.96 634.75l22.54 -4.75c9.75,-2.25 18.39,-1.52 27.5,-1l141.27 6.88 0 -30.51 -126.04 -11.52 -31.5 0 -33.77 7.32 0 33.58z"/>
  <polygon id="AP-10B" class="fil1 str0" points="913.96,601.17 947.73,593.85 979.23,593.85 1105.27,605.37 1105.27,574.7 976.73,561 949.48,561 913.96,569.07 "/>
  <path id="AP-11B" class="fil1 str0" d="M913.96 569.07l35.52 -8.07 27.25 0 128.54 13.7 0 -29.72c-29.11,-3.59 -125.59,-15.48 -127.29,-15.48 -2,0 -27.98,0 -27.98,0l-36.04 11.18 0 28.39z"/>
  <path id="AP-12B" class="fil1 str0" d="M913.96 540.68l36.04 -11.18c0,0 25.98,0 27.98,0 1.7,0 98.18,11.89 127.29,15.48l0 -30.32 -128.04 -17.95 -29.5 0 -33.77 10.19 0 33.78z"/>
  <polygon id="AP-13B" class="fil1 str0" points="913.96,506.89 947.73,496.71 977.23,496.71 1105.27,514.65 1105.27,484.54 975.98,465.5 951.5,465.5 913.96,480.16 "/>
  <polygon id="AP-14B" class="fil1 str0" points="913.96,480.16 951.5,465.5 975.98,465.5 1105.27,484.54 1105.27,456.38 976.23,434.25 950.25,434.25 913.96,449.65 "/>
  <polygon id="AP-15B" class="fil1 str0" points="913.96,449.65 950.25,434.25 976.23,434.25 1105.27,456.38 1105.27,427.54 976.48,403.75 949.5,403.75 913.96,419.57 "/>
  <polygon id="AP-16B" class="fil1 str0" points="913.96,419.57 949.5,403.75 976.48,403.75 1105.27,427.54 1105.27,397.95 1062,391 977.98,373.5 950.75,373.5 913.96,391.24 "/>
  <polygon id="AP-17B" class="fil1 str0" points="913.96,391.24 950.75,373.5 977.98,373.5 1062,391 1062.51,355.61 976.5,338.75 951,339.75 913.96,358.5 "/>
  <path id="AP-18B" class="fil1 str0" d="M913.96 358.5l37.04 -18.75 25.5 -1 86.01 16.86 0.4 -27.31 -91.82 -20.63c-6.14,-1.08 -13.34,-1.67 -20.7,0.17l-36.43 18.85 0 31.81z"/>
  <path id="AP-19B" class="fil1 str0" d="M913.96 297.45l35.26 -19.69c10.28,-4.15 21.03,-2.65 29.03,-1.65l126.75 31.08 0 30.35 -124.18 -27.68c-11.75,-2.95 -19.82,-5 -28.82,-3l-38.04 19.68 0 -29.09z"/>
  <path id="AP-205B" class="fil1 str0" d="M913.96 297.76l35.26 -19.7c10.25,-3.31 21.28,-2.9 29.03,-1.65l126.75 31.09 0 -29.44 -128.75 -35.4c-8.25,-1.25 -17.25,-1 -27.03,3.11l-35.26 21.58 0 30.41z"/>
  <path class="fil1 str0" d="M913.96 267.11c11.76,-7.19 23.51,-14.39 35.26,-21.58 9.03,-4.61 18.53,-4.36 27.03,-3.11 42.92,11.8 85.83,23.6 128.75,35.41l0 -30.12 -129.05 -37.7c-5.22,-1.52 -19.2,-1.58 -25.72,1.62 -1.26,0.62 -24.74,15.66 -36.27,23.45 0,10.68 0,21.36 0,32.03z"/>
  <path class="fil1 str0" d="M914.24 233.45c12.08,-7.82 25.42,-15.13 37.51,-22.95 8,-2.75 17,-1.5 24.14,-0.5 43.13,12.03 86.26,24.05 129.38,36.08l-0.27 -28.8 -129.75 -37.28c-9.47,-0.99 -17.5,-2.75 -29,2.5l-32.29 22.97c0,9.89 0.28,18.08 0.28,27.98z"/>
  <path class="fil1 str0" d="M913.96 174.61c13.4,-10.34 34.04,-24.86 34.04,-24.86 10.44,-3.28 16.75,-4.25 27.25,-2.25l129.75 39.44 0 30.34 -129.75 -37.28c-7.75,-0.75 -17.25,-3 -29,2.5l-32.29 22.97 0 -30.86z"/>
  <path class="fil1 str0" d="M913.96 174.72c13.4,-10.33 34.04,-24.85 34.04,-24.85 8.5,-4 19.25,-3.75 27.25,-2.25 43.25,13.14 86.5,26.29 129.75,39.43l0 -29.17 -113 -34.76c-14.91,-5.65 -26,-10 -42,-3l-36.04 25.06c0,9.85 0,19.69 0,29.54z"/>
 </g>
</svg>
